# xmcd
#
# Track frame offsets:
#	150
#	19625
#	40500
#	59975
#
# Disc length: 1073 seconds
#
# Revision: 1
# Processed by: cddbd v1.5.1PL0 Copyright (c) Steve Scherf et al.
# Submitted via: CDex 1.50Beta5
#
DISCID=2d042f04
DTITLE=宮地真緒 - 秋桜/夢先案内人
DYEAR=2003
DGENRE=Pop
TTITLE0=秋桜
TTITLE1=夢先案内人
TTITLE2=秋桜 (Instrumental)
TTITLE3=夢先案内人 (Instrumental)
EXTD=
EXTT0=
EXTT1=
EXTT2=
EXTT3=
PLAYORDER=
